<svg width="607" height="141" viewBox="0 0 607 141" fill="none" xmlns="http://www.w3.org/2000/svg">
<path d="M0 112.889V32.2539H28.2221V44.3491H12.0952V100.793H28.2221V112.889H0Z" fill="black"/>
<path d="M80.6348 112.889V32.2539H52.4126V44.3491H68.5396V100.793H52.4126V112.889H80.6348Z" fill="black"/>
<path d="M132.015 113V33.978H143.981L172.768 80.8268L167.011 80.7139L196.136 33.978H207.425V113H195.233V80.601C195.233 73.8277 195.383 67.7317 195.684 62.313C196.061 56.8944 196.663 51.5134 197.491 46.17L199.071 50.3468L173.22 90.3094H165.769L140.708 50.7984L141.949 46.17C142.777 51.2123 143.342 56.4052 143.643 61.7486C144.019 67.0167 144.207 73.3009 144.207 80.601V113H132.015ZM251.706 114.129C246.814 114.129 242.336 112.774 238.272 110.065C234.284 107.356 231.085 103.668 228.677 99.0018C226.269 94.3358 225.065 89.0676 225.065 83.1974C225.065 77.252 226.269 71.9838 228.677 67.393C231.161 62.727 234.472 59.0769 238.611 56.4428C242.826 53.8088 247.529 52.4917 252.722 52.4917C255.808 52.4917 258.63 52.9433 261.189 53.8464C263.748 54.7495 265.968 56.0289 267.849 57.6846C269.806 59.265 271.386 61.1089 272.591 63.2161C273.87 65.3234 274.66 67.5812 274.961 69.9895L272.365 69.0863V53.7335H284.105V113H272.365V98.8889L275.074 98.0987C274.623 100.131 273.682 102.125 272.252 104.082C270.897 105.963 269.129 107.657 266.946 109.162C264.839 110.667 262.468 111.871 259.834 112.774C257.275 113.677 254.566 114.129 251.706 114.129ZM254.754 103.404C258.291 103.404 261.415 102.539 264.124 100.808C266.833 99.0771 268.941 96.7064 270.446 93.6961C272.026 90.6104 272.816 87.1109 272.816 83.1974C272.816 79.3592 272.026 75.9349 270.446 72.9246C268.941 69.9142 266.833 67.5435 264.124 65.8126C261.415 64.0816 258.291 63.2161 254.754 63.2161C251.292 63.2161 248.207 64.0816 245.497 65.8126C242.863 67.5435 240.756 69.9142 239.176 72.9246C237.67 75.9349 236.918 79.3592 236.918 83.1974C236.918 87.1109 237.67 90.6104 239.176 93.6961C240.756 96.7064 242.863 99.0771 245.497 100.808C248.207 102.539 251.292 103.404 254.754 103.404ZM309.936 113V38.6064H321.563V113H309.936ZM297.631 65.0224V53.7335H335.335V65.0224H297.631ZM348.181 113V53.7335H359.921V72.3601L358.792 67.8446C359.62 64.9847 361.013 62.3883 362.969 60.0553C365.001 57.7222 367.297 55.8784 369.856 54.5237C372.49 53.1691 375.199 52.4917 377.984 52.4917C379.263 52.4917 380.467 52.6046 381.596 52.8304C382.8 53.0562 383.741 53.3196 384.418 53.6206L381.37 66.2641C380.467 65.8878 379.451 65.5868 378.322 65.361C377.269 65.06 376.215 64.9095 375.161 64.9095C373.129 64.9095 371.173 65.3234 369.291 66.1512C367.485 66.9038 365.867 67.9951 364.437 69.425C363.082 70.7797 361.991 72.3977 361.163 74.2792C360.335 76.0854 359.921 78.0798 359.921 80.2623V113H348.181ZM397.888 113V53.7335H409.516V113H397.888ZM403.533 40.6384C401.049 40.6384 399.13 39.9987 397.775 38.7193C396.421 37.4399 395.743 35.6337 395.743 33.3007C395.743 31.1182 396.421 29.3496 397.775 27.9949C399.205 26.6402 401.124 25.9629 403.533 25.9629C406.016 25.9629 407.935 26.6026 409.29 27.882C410.645 29.1614 411.322 30.9676 411.322 33.3007C411.322 35.4832 410.607 37.2518 409.177 38.6064C407.822 39.9611 405.941 40.6384 403.533 40.6384ZM454.82 114.129C449.326 114.129 444.397 112.774 440.032 110.065C435.742 107.356 432.318 103.668 429.759 99.0018C427.275 94.3358 426.034 89.1053 426.034 83.3103C426.034 77.5154 427.275 72.2849 429.759 67.6188C432.318 62.9527 435.742 59.265 440.032 56.5557C444.397 53.8464 449.326 52.4917 454.82 52.4917C460.088 52.4917 464.867 53.583 469.157 55.7655C473.522 57.8727 476.833 60.7702 479.091 64.4579L472.656 72.3601C471.452 70.6292 469.91 69.0487 468.028 67.6188C466.147 66.1889 464.152 65.06 462.045 64.2321C459.938 63.4043 457.906 62.9904 455.949 62.9904C452.337 62.9904 449.1 63.8935 446.241 65.6997C443.456 67.4306 441.236 69.8389 439.58 72.9246C437.924 76.0102 437.097 79.4721 437.097 83.3103C437.097 87.1485 437.962 90.6104 439.693 93.6961C441.424 96.7064 443.719 99.1147 446.579 100.921C449.439 102.727 452.6 103.63 456.062 103.63C458.094 103.63 460.051 103.292 461.932 102.614C463.889 101.937 465.77 100.921 467.577 99.5663C469.383 98.2116 471.076 96.5559 472.656 94.5992L479.091 102.501C476.683 105.888 473.221 108.673 468.705 110.855C464.265 113.038 459.637 114.129 454.82 114.129ZM519.974 114.129C513.878 114.129 508.46 112.849 503.719 110.291C499.052 107.657 495.365 104.082 492.655 99.5663C490.021 95.0507 488.704 89.8578 488.704 83.9876C488.704 79.3216 489.457 75.0694 490.962 71.2312C492.467 67.393 494.537 64.0816 497.171 61.297C499.88 58.4372 503.079 56.2547 506.766 54.7495C510.529 53.1691 514.593 52.3788 518.958 52.3788C522.797 52.3788 526.371 53.1314 529.683 54.6366C532.994 56.0665 535.854 58.0609 538.262 60.6197C540.746 63.1785 542.627 66.2265 543.907 69.7637C545.262 73.2256 545.901 77.0262 545.826 81.1654L545.713 86.1325H497.284L494.687 76.8757H535.666L533.973 78.7948V76.0854C533.747 73.6019 532.919 71.3817 531.489 69.425C530.059 67.4683 528.253 65.9255 526.07 64.7966C523.888 63.6677 521.517 63.1032 518.958 63.1032C514.894 63.1032 511.47 63.8935 508.686 65.4739C505.901 66.9791 503.794 69.2369 502.364 72.2472C500.934 75.1823 500.219 78.8324 500.219 83.1974C500.219 87.3367 501.084 90.9491 502.815 94.0347C504.546 97.0451 506.992 99.3781 510.153 101.034C513.314 102.69 516.964 103.517 521.103 103.517C524.038 103.517 526.748 103.028 529.231 102.05C531.79 101.071 534.537 99.3029 537.472 96.744L543.342 104.985C541.536 106.791 539.316 108.372 536.682 109.726C534.123 111.081 531.376 112.172 528.441 113C525.581 113.753 522.759 114.129 519.974 114.129ZM580.476 114.129C575.509 114.129 571.031 113.263 567.042 111.532C563.053 109.801 559.742 107.243 557.108 103.856L565.01 97.0827C567.268 99.7168 569.714 101.636 572.348 102.84C575.057 103.969 578.105 104.533 581.492 104.533C582.846 104.533 584.088 104.383 585.217 104.082C586.421 103.706 587.437 103.179 588.265 102.501C589.168 101.824 589.845 101.034 590.297 100.131C590.749 99.1523 590.974 98.0987 590.974 96.9698C590.974 95.0131 590.259 93.4326 588.829 92.2285C588.077 91.7017 586.873 91.1372 585.217 90.5352C583.637 89.8578 581.567 89.1805 579.008 88.5032C574.643 87.3743 571.068 86.0949 568.284 84.665C565.499 83.235 563.354 81.617 561.849 79.8108C560.72 78.3808 559.892 76.838 559.366 75.1823C558.839 73.4514 558.575 71.5699 558.575 69.5379C558.575 67.0543 559.102 64.7966 560.156 62.7646C561.285 60.6573 562.79 58.8511 564.671 57.3459C566.628 55.7655 568.886 54.5613 571.445 53.7335C574.079 52.9056 576.863 52.4917 579.798 52.4917C582.583 52.4917 585.33 52.868 588.039 53.6206C590.824 54.3732 593.383 55.4645 595.716 56.8944C598.049 58.3243 600.005 60.0176 601.586 61.9744L594.925 69.3121C593.495 67.8822 591.915 66.6404 590.184 65.5868C588.528 64.4579 586.835 63.5924 585.104 62.9904C583.373 62.3883 581.793 62.0872 580.363 62.0872C578.782 62.0872 577.352 62.2378 576.073 62.5388C574.794 62.8398 573.702 63.2914 572.799 63.8935C571.971 64.4955 571.332 65.2481 570.88 66.1512C570.429 67.0543 570.203 68.0703 570.203 69.1992C570.278 70.1776 570.504 71.1183 570.88 72.0214C571.332 72.8493 571.934 73.5643 572.686 74.1663C573.514 74.7684 574.756 75.4081 576.412 76.0854C578.067 76.7628 580.175 77.4025 582.733 78.0045C586.496 78.9829 589.582 80.0742 591.99 81.2783C594.474 82.4072 596.431 83.7242 597.861 85.2294C599.366 86.6593 600.419 88.315 601.021 90.1965C601.623 92.078 601.925 94.1852 601.925 96.5183C601.925 99.9049 600.946 102.953 598.989 105.662C597.108 108.296 594.549 110.366 591.313 111.871C588.077 113.376 584.464 114.129 580.476 114.129Z" fill="black"/>
</svg>
