<svg class="modal-logo__svg" xmlns="http://www.w3.org/2000/svg" viewBox="0 0 1024 1024">
<g class="book">
  <path fill="#4a2d15" d="
    M 651.93 282.32
    Q 651.28 291.55 651.28 309.75
    Q 651.25 465.50 651.23 621.25
    Q 651.22 638.46 651.42 647.26
    Q 651.43 647.77 651.78 648.47
    Q 651.95 648.49 652.04 648.54
    A 0.15 0.14 -76.8 0 1 652.12 648.67
    L 651.96 657.77
    A 0.42 0.42 0.0 0 1 651.44 658.17
    Q 650.35 657.91 649.20 656.29
    Q 627.50 625.59 603.50 601.15
    Q 578.49 575.67 549.72 553.84
    Q 519.31 530.77 483.45 512.81
    Q 456.94 499.53 429.42 489.86
    Q 398.63 479.04 370.10 474.47
    Q 356.05 472.22 333.34 471.11
    Q 329.30 470.91 327.46 469.97
    C 322.97 467.71 321.39 462.16 321.87 457.36
    Q 323.08 451.82 323.01 446.00
    Q 322.70 420.00 323.07 393.99
    Q 323.15 388.05 321.91 382.46
    Q 322.06 275.80 322.09 169.05
    Q 322.09 163.77 323.10 161.73
    C 327.87 152.12 340.89 155.03 349.74 156.10
    Q 361.05 157.47 379.98 160.62
    Q 422.93 167.74 463.06 176.94
    Q 486.09 182.22 513.45 190.79
    Q 536.86 198.13 558.22 207.26
    Q 583.80 218.19 607.29 233.20
    C 620.23 241.47 633.23 251.06 642.91 262.81
    Q 650.56 272.11 651.93 282.32
    Z"/>
  <path fill="#080301" d="
    M 977.29 611.69
    Q 976.52 611.24 976.20 610.82
    A 0.35 0.35 0.0 0 1 976.47 610.26
    Q 982.59 610.03 983.41 609.99
    Q 985.94 609.85 989.03 608.22
    C 991.72 606.80 993.02 603.09 993.06 599.64
    C 993.19 590.42 992.95 581.32 992.95 575.42
    Q 993.16 175.79 993.08 168.39
    C 993.04 163.91 993.13 160.70 989.48 157.90
    A 2.09 2.04 -17.4 0 0 988.79 157.55
    L 984.26 156.18
    A 3.83 3.78 53.5 0 0 983.24 156.02
    L 969.63 155.84
    Q 974.85 155.04 980.01 154.97
    Q 986.72 154.87 990.02 157.02
    Q 994.71 160.07 994.71 166.75
    Q 994.59 438.67 994.75 594.50
    C 994.75 598.52 994.60 602.67 992.65 605.79
    C 989.16 611.35 983.09 610.96 977.29 611.69
    Z"/>
  <path fill="#4a2d15" d="
    M 969.63 155.84
    L 983.24 156.02
    A 3.83 3.78 53.5 0 1 984.26 156.18
    L 988.79 157.55
    A 2.09 2.04 -17.4 0 1 989.48 157.90
    C 993.13 160.70 993.04 163.91 993.08 168.39
    Q 993.16 175.79 992.95 575.42
    C 992.95 581.32 993.19 590.42 993.06 599.64
    C 993.02 603.09 991.72 606.80 989.03 608.22
    Q 985.94 609.85 983.41 609.99
    Q 982.59 610.03 976.47 610.26
    A 0.35 0.35 0.0 0 0 976.20 610.82
    Q 976.52 611.24 977.29 611.69
    Q 965.61 612.33 957.77 613.13
    Q 941.64 614.79 927.01 616.97
    Q 863.77 626.38 806.53 648.09
    Q 766.75 663.17 731.58 681.88
    Q 707.47 694.71 696.42 700.45
    C 692.99 702.23 687.80 702.67 684.31 700.73
    C 680.32 698.51 679.40 695.21 678.27 691.02
    A 5.68 5.59 -53.1 0 1 678.07 689.53
    Q 678.05 499.64 678.07 291.26
    Q 678.07 282.64 679.34 278.37
    C 681.79 270.13 686.84 263.40 693.09 256.83
    C 699.32 250.27 707.57 243.49 715.16 237.98
    Q 746.42 215.27 782.55 200.81
    Q 815.29 187.70 848.90 178.83
    Q 908.56 163.10 969.63 155.84
    Z"/>
  <path fill="#080301" d="
    M 651.93 282.32
    Q 652.28 293.51 652.28 313.25
    Q 652.26 467.38 652.24 621.50
    Q 652.24 634.00 652.07 646.50
    Q 652.06 647.48 651.78 648.47
    Q 651.43 647.77 651.42 647.26
    Q 651.22 638.46 651.23 621.25
    Q 651.25 465.50 651.28 309.75
    Q 651.28 291.55 651.93 282.32
    Z"/>
  <path fill="#080301" d="
    M 807.11 362.30
    Q 807.21 337.41 807.15 298.84
    Q 807.13 291.31 814.46 288.87
    A 3.82 3.75 36.5 0 1 815.82 288.68
    Q 823.39 288.95 825.86 288.89
    Q 833.09 288.70 835.52 289.95
    C 840.86 292.69 841.44 297.03 841.44 303.05
    Q 841.44 320.02 841.37 362.72
    A 0.45 0.45 0.0 0 0 841.83 363.17
    Q 863.20 362.72 898.11 362.76
    Q 905.38 362.76 907.63 364.25
    Q 911.67 366.93 911.88 372.78
    Q 912.23 382.37 911.74 387.27
    Q 911.15 393.05 907.10 395.71
    Q 905.12 397.01 899.64 397.02
    Q 861.85 397.07 841.84 396.80
    A 0.48 0.48 0.0 0 0 841.36 397.28
    Q 841.50 466.61 841.44 548.23
    Q 841.43 557.96 832.88 560.28
    A 3.97 3.62 33.6 0 1 832.10 560.40
    Q 826.63 560.67 817.61 560.33
    Q 810.85 560.07 808.19 554.41
    C 807.04 551.97 807.30 547.61 807.29 544.08
    Q 807.12 468.99 807.22 396.96
    A 0.26 0.26 0.0 0 0 806.95 396.70
    Q 783.11 397.20 751.05 397.04
    Q 744.81 397.01 743.12 396.28
    C 737.33 393.79 736.92 389.30 737.16 382.88
    C 737.29 379.11 736.23 371.24 738.49 367.55
    C 741.02 363.42 744.92 362.19 749.96 362.27
    C 757.22 362.40 764.67 362.26 772.02 362.51
    Q 789.56 363.11 806.47 362.95
    A 0.65 0.64 90.0 0 0 807.11 362.30
    Z"/>
  <path fill="#080301" d="
    M 679.83 679.66
    A 0.45 0.45 0.0 0 1 679.38 680.11
    L 679.34 680.11
    A 0.45 0.45 0.0 0 1 678.89 679.66
    L 678.89 304.52
    A 0.45 0.45 0.0 0 1 679.34 304.07
    L 679.38 304.07
    A 0.45 0.45 0.0 0 1 679.83 304.52
    L 679.83 679.66
    Z"/>
  <path fill="#080301" d="
    M 321.87 457.36
    L 321.91 382.46
    Q 323.15 388.05 323.07 393.99
    Q 322.70 420.00 323.01 446.00
    Q 323.08 451.82 321.87 457.36
    Z"/>
</g>
<path class="cross" fill="#d7a14d" d="
  M 840.05 364.39
  A 0.37 0.37 0.0 0 0 840.45 364.77
  C 859.31 363.70 873.96 364.01 901.99 363.98
  Q 910.01 363.97 910.52 372.79
  Q 910.94 379.96 910.55 386.75
  C 910.02 395.97 903.75 395.78 895.43 395.82
  Q 865.03 395.96 840.32 395.27
  A 0.27 0.27 0.0 0 0 840.04 395.54
  Q 839.99 435.17 839.96 506.25
  Q 839.95 523.20 840.19 546.25
  C 840.25 552.22 838.62 558.57 831.71 559.01
  Q 824.13 559.48 816.80 558.98
  C 809.80 558.51 808.61 553.52 808.62 547.26
  Q 808.63 487.43 808.61 395.41
  A 0.25 0.24 88.9 0 0 808.36 395.16
  Q 781.28 395.93 750.25 395.72
  C 743.72 395.68 738.43 394.37 738.36 387.27
  Q 738.31 382.63 738.40 373.23
  Q 738.45 367.06 743.06 364.66
  Q 745.28 363.50 753.13 363.61
  Q 795.69 364.20 808.14 364.63
  A 0.71 0.71 0.0 0 0 808.87 364.00
  C 808.94 363.29 808.64 362.39 808.64 361.61
  Q 808.60 339.40 808.61 301.50
  C 808.61 296.18 809.03 290.22 816.00 290.01
  Q 821.48 289.85 830.21 290.07
  C 837.08 290.24 840.06 294.06 840.08 300.76
  Q 840.21 341.12 840.05 364.39
  Z"/>
<g class="bread">
  <path fill="#ae7646" d="
    M 264.31 512.90
    Q 250.83 522.45 245.47 527.97
    Q 240.65 532.92 235.56 537.56
    Q 229.91 542.72 218.05 557.64
    L 216.62 559.80
    Q 216.57 559.85 216.55 560.01
    Q 207.98 570.73 202.49 583.31
    Q 202.50 583.36 202.51 583.42
    Q 198.03 592.26 195.06 601.62
    Q 192.02 611.20 191.84 621.58
    C 191.81 623.94 192.32 627.40 193.10 629.19
    Q 194.46 632.29 197.16 632.60
    Q 200.15 629.62 201.85 627.10
    Q 208.00 617.97 216.00 605.44
    C 223.25 594.09 232.03 581.75 237.85 574.10
    C 249.00 559.47 261.89 545.68 276.82 532.08
    Q 291.59 518.62 309.41 508.43
    Q 324.50 499.82 339.20 495.50
    Q 349.61 492.44 360.73 493.18
    Q 370.86 493.86 382.04 495.89
    Q 410.79 501.11 438.53 511.70
    Q 446.35 514.70 453.75 518.30
    Q 454.83 518.83 454.78 519.96
    Q 454.77 520.16 454.16 520.40
    L 444.66 524.40
    L 443.49 524.82
    Q 441.75 525.22 440.35 526.31
    L 436.20 528.47
    Q 436.15 528.51 436.10 528.55
    Q 434.16 529.20 432.52 530.49
    Q 432.21 530.44 431.90 530.72
    Q 430.93 531.11 430.19 531.74
    Q 429.01 532.05 428.20 532.92
    L 427.63 533.27
    L 425.71 534.44
    Q 425.37 534.54 425.23 534.77
    Q 423.71 535.37 422.48 536.49
    L 419.57 538.47
    Q 419.28 538.50 419.14 538.73
    Q 418.22 539.19 417.43 539.99
    Q 416.95 540.22 416.53 540.64
    Q 415.49 540.97 414.90 541.73
    Q 413.78 542.36 412.98 543.25
    L 407.53 547.50
    Q 407.31 547.58 407.16 547.73
    L 402.29 551.77
    Q 402.05 551.81 401.90 552.04
    Q 375.92 574.19 358.51 603.56
    Q 358.50 603.63 358.49 603.70
    Q 351.26 614.73 346.55 627.08
    Q 346.56 627.12 346.57 627.17
    Q 340.48 639.18 338.80 652.37
    Q 338.55 654.38 338.82 655.61
    C 339.17 657.19 340.31 659.76 342.40 658.42
    Q 342.42 658.71 343.27 658.42
    C 345.79 658.53 348.93 654.23 349.83 653.09
    C 357.00 644.00 361.90 637.80 367.27 630.24
    Q 379.62 612.91 387.89 602.88
    C 404.70 582.50 422.39 565.34 442.86 550.86
    Q 456.96 540.88 471.18 535.48
    Q 481.70 531.47 492.19 536.07
    Q 501.59 540.19 509.92 545.60
    Q 552.81 573.44 586.05 614.22
    Q 597.28 627.99 607.05 644.47
    Q 622.80 671.02 628.64 700.09
    Q 629.91 706.39 630.42 715.68
    Q 630.88 724.03 630.03 731.32
    C 627.45 753.39 620.01 772.81 605.57 789.62
    Q 585.45 813.04 555.38 827.18
    Q 537.55 835.57 517.36 841.38
    Q 502.14 845.75 488.69 848.43
    Q 463.09 853.52 441.24 855.82
    Q 437.83 856.18 436.64 856.33
    Q 432.79 856.79 428.22 856.97
    Q 422.54 857.19 419.80 857.66
    C 416.10 858.29 411.06 857.95 406.73 858.41
    C 398.69 859.26 389.79 859.00 379.44 859.37
    Q 356.60 860.17 343.01 859.71
    Q 317.81 858.86 316.16 858.92
    C 308.76 859.23 299.43 857.95 291.78 857.96
    Q 287.79 857.96 284.96 857.58
    C 280.30 856.95 276.06 857.11 271.38 856.28
    C 268.67 855.81 265.94 856.01 262.32 855.60
    Q 230.82 852.09 199.51 845.89
    Q 168.05 839.66 138.82 829.87
    Q 124.14 824.95 108.88 817.37
    Q 90.50 808.23 76.22 795.78
    Q 70.14 790.48 62.35 780.66
    C 51.15 766.55 44.20 748.78 41.45 730.61
    Q 38.99 714.35 40.42 696.80
    Q 41.86 679.13 48.51 658.98
    Q 53.36 644.28 63.31 626.10
    Q 71.10 611.86 83.31 596.09
    Q 111.68 559.43 150.39 532.83
    C 173.73 516.79 199.43 504.81 226.15 497.42
    Q 245.02 492.20 265.76 490.82
    Q 276.46 490.11 283.12 492.11
    A 1.75 1.75 0.0 0 1 283.88 492.57
    Q 285.67 494.39 283.62 496.11
    Q 270.83 506.82 264.31 512.90
    Z"/>
  <path fill="#774c29" d="
    M 264.31 512.90
    Q 249.44 528.57 240.63 539.38
    Q 233.06 548.66 223.92 562.89
    Q 208.88 586.31 201.08 611.06
    Q 198.40 619.54 197.79 630.25
    Q 196.50 631.77 194.67 630.06
    Q 193.97 629.39 193.64 628.41
    Q 192.16 624.00 192.44 618.51
    Q 192.92 609.03 197.04 597.93
    Q 199.72 590.73 202.51 583.42
    Q 202.50 583.36 202.49 583.31
    Q 208.79 571.22 216.55 560.01
    Q 216.57 559.85 216.62 559.80
    Q 218.04 559.08 218.05 557.64
    Q 229.91 542.72 235.56 537.56
    Q 240.65 532.92 245.47 527.97
    Q 250.83 522.45 264.31 512.90
    Z"/>
  <path fill="#774c29" d="
    M 454.16 520.40
    Q 453.90 521.64 453.17 522.19
    C 449.95 524.65 446.94 528.08 444.32 530.31
    Q 424.75 547.05 414.44 557.44
    Q 385.72 586.42 364.40 619.13
    Q 352.78 636.98 343.27 657.47
    A 1.04 1.03 -39.2 0 0 343.20 658.11
    L 343.27 658.42
    Q 342.42 658.71 342.40 658.42
    Q 340.65 657.70 339.63 656.45
    A 1.48 1.44 25.8 0 1 339.31 655.57
    Q 339.21 650.52 340.35 646.06
    Q 342.65 637.11 346.57 627.17
    Q 346.56 627.12 346.55 627.08
    L 358.49 603.70
    Q 358.50 603.63 358.51 603.56
    Q 362.60 597.50 366.71 591.49
    Q 377.63 575.51 391.53 562.04
    Q 396.69 557.04 401.90 552.04
    Q 402.05 551.81 402.29 551.77
    L 407.16 547.73
    Q 407.31 547.58 407.53 547.50
    L 412.98 543.25
    Q 414.21 542.73 414.90 541.73
    Q 415.49 540.97 416.53 540.64
    Q 417.04 540.39 417.43 539.99
    Q 418.58 539.49 419.14 538.73
    Q 419.28 538.50 419.57 538.47
    Q 421.22 537.84 422.48 536.49
    Q 424.03 535.87 425.23 534.77
    Q 425.37 534.54 425.71 534.44
    Q 426.85 534.17 427.63 533.27
    L 428.20 532.92
    Q 429.27 532.61 430.19 531.74
    Q 431.26 531.46 431.90 530.72
    Q 432.21 530.44 432.52 530.49
    L 436.10 528.55
    Q 436.15 528.51 436.20 528.47
    L 440.76 526.44
    A 0.06 0.06 0.0 0 0 440.73 526.32
    Q 440.60 526.34 440.35 526.31
    Q 441.75 525.22 443.49 524.82
    Q 443.20 525.17 442.76 525.33
    A 0.11 0.11 0.0 0 0 442.74 525.52
    Q 442.84 525.58 443.00 525.55
    Q 444.27 525.34 444.66 524.40
    L 454.16 520.40
    Z"/>
  <path fill="#4a2d15" d="
    M 444.66 524.40
    Q 444.27 525.34 443.00 525.55
    Q 442.84 525.58 442.74 525.52
    A 0.11 0.11 0.0 0 1 442.76 525.33
    Q 443.20 525.17 443.49 524.82
    L 444.66 524.40
    Z"/>
  <path fill="#4a2d15" d="
    M 436.20 528.47
    L 440.35 526.31
    Q 440.60 526.34 440.73 526.32
    A 0.06 0.06 0.0 0 1 440.76 526.44
    L 436.20 528.47
    Z"/>
  <path fill="#4a2d15" d="
    M 436.10 528.55
    L 432.52 530.49
    Q 434.16 529.20 436.10 528.55
    Z"/>
  <path fill="#4a2d15" d="
    M 431.90 530.72
    Q 431.26 531.46 430.19 531.74
    Q 430.93 531.11 431.90 530.72
    Z"/>
  <path fill="#4a2d15" d="
    M 430.19 531.74
    Q 429.27 532.61 428.20 532.92
    Q 429.01 532.05 430.19 531.74
    Z"/>
  <path fill="#4a2d15" d="
    M 427.63 533.27
    Q 426.85 534.17 425.71 534.44
    L 427.63 533.27
    Z"/>
  <path fill="#4a2d15" d="
    M 425.23 534.77
    Q 424.03 535.87 422.48 536.49
    Q 423.71 535.37 425.23 534.77
    Z"/>
  <path fill="#4a2d15" d="
    M 422.48 536.49
    Q 421.22 537.84 419.57 538.47
    L 422.48 536.49
    Z"/>
  <path fill="#4a2d15" d="
    M 419.14 538.73
    Q 418.58 539.49 417.43 539.99
    Q 418.22 539.19 419.14 538.73
    Z"/>
  <path fill="#4a2d15" d="
    M 417.43 539.99
    Q 417.04 540.39 416.53 540.64
    Q 416.95 540.22 417.43 539.99
    Z"/>
  <path fill="#4a2d15" d="
    M 414.90 541.73
    Q 414.21 542.73 412.98 543.25
    Q 413.78 542.36 414.90 541.73
    Z"/>
  <path fill="#4a2d15" d="
    M 412.98 543.25
    L 407.53 547.50
    L 412.98 543.25
    Z"/>
  <path fill="#4a2d15" d="
    M 407.16 547.73
    L 402.29 551.77
    L 407.16 547.73
    Z"/>
  <path fill="#080301" d="
    M 401.90 552.04
    Q 396.69 557.04 391.53 562.04
    Q 377.63 575.51 366.71 591.49
    Q 362.60 597.50 358.51 603.56
    Q 375.92 574.19 401.90 552.04
    Z"/>
  <path fill="#4a2d15" d="
    M 218.05 557.64
    Q 218.04 559.08 216.62 559.80
    L 218.05 557.64
    Z"/>
  <path fill="#4a2d15" d="
    M 216.55 560.01
    Q 208.79 571.22 202.49 583.31
    Q 207.98 570.73 216.55 560.01
    Z"/>
  <path fill="#4a2d15" d="
    M 202.51 583.42
    Q 199.72 590.73 197.04 597.93
    Q 192.92 609.03 192.44 618.51
    Q 192.16 624.00 193.64 628.41
    Q 193.97 629.39 194.67 630.06
    Q 196.50 631.77 197.79 630.25
    Q 197.95 631.65 197.16 632.60
    Q 194.46 632.29 193.10 629.19
    C 192.32 627.40 191.81 623.94 191.84 621.58
    Q 192.02 611.20 195.06 601.62
    Q 198.03 592.26 202.51 583.42
    Z"/>
  <path fill="#4a2d15" d="
    M 358.49 603.70
    L 346.55 627.08
    Q 351.26 614.73 358.49 603.70
    Z"/>
  <path fill="#4a2d15" d="
    M 346.57 627.17
    Q 342.65 637.11 340.35 646.06
    Q 339.21 650.52 339.31 655.57
    A 1.48 1.44 25.8 0 0 339.63 656.45
    Q 340.65 657.70 342.40 658.42
    C 340.31 659.76 339.17 657.19 338.82 655.61
    Q 338.55 654.38 338.80 652.37
    Q 340.48 639.18 346.57 627.17
    Z"/>
</g>
</svg>