<?xml version="1.0" encoding="UTF-8"?>
<svg xmlns="http://www.w3.org/2000/svg" viewBox="188 543 875 603" role="img" aria-label="PageAura">
  <g id="brown" fill="#3C2319" stroke="#3C2319" stroke-width="3" stroke-linejoin="round">
    <path d="M0 0 C0 96.03 0 192.06 0 291 C7.59 291 15.18 291 23 291 C27.48 291.28 31.82 291.6 36.25 292.12 C37.39 292.26 38.54 292.39 39.71 292.52 C96 299.3 151.51 314.15 203 338 C203.98 338.45 204.97 338.91 205.98 339.37 C235.93 353.25 264.84 369.21 292 388 C292.66 388.46 293.32 388.91 294 389.38 C308.55 399.43 322.67 409.98 336.08 421.52 C338.72 423.76 341.4 425.92 344.12 428.06 C347.72 430.91 351.13 433.9 354.5 437 C369.65 450.91 369.65 450.91 374 451 C376.19 449.45 376.19 449.45 378.56 447.12 C382.11 443.76 385.69 440.56 389.5 437.5 C393.04 434.64 396.46 431.71 399.81 428.62 C405.39 423.55 411.29 418.95 417.25 414.35 C418.89 413.09 420.52 411.81 422.15 410.54 C435.05 400.5 448.27 390.85 462 382 C462.65 381.57 463.31 381.15 463.98 380.71 C534.7 334.81 615.25 303.65 699 293 C699.93 292.88 700.86 292.76 701.83 292.64 C715.95 290.92 729.68 291 744 291 C744 194.97 744 98.94 744 0 C758.99 0 766.78 1.65 777.5 11.81 C787.23 22.34 790.31 31.73 790.27 45.78 C790.27 46.96 790.28 48.14 790.28 49.36 C790.29 52.63 790.29 55.9 790.29 59.17 C790.29 62.7 790.3 66.23 790.31 69.76 C790.33 76.68 790.33 83.59 790.33 90.5 C790.34 96.12 790.34 101.75 790.35 107.37 C790.36 123.32 790.37 139.27 790.37 155.22 C790.37 155.65 790.37 155.65 790.37 157.83 C790.37 158.69 790.37 159.55 790.37 160.43 C790.37 174.37 790.39 188.31 790.42 202.25 C790.45 216.58 790.46 230.9 790.46 245.23 C790.46 253.27 790.46 261.31 790.48 269.34 C790.5 276.19 790.51 283.03 790.49 289.88 C790.49 293.37 790.49 296.86 790.5 300.34 C790.52 304.13 790.51 307.92 790.49 311.71 C790.5 312.26 790.5 312.26 790.53 315.02 C790.41 327.98 785.17 339.7 776.38 349.19 C762.82 361.85 744.99 363.96 727.45 367.09 C668.27 377.69 609.28 390.57 552 409 C551.36 409.21 550.72 409.41 550.06 409.62 C523.8 418.11 497.94 428.17 473 440 C472.09 440.43 471.19 440.85 470.25 441.29 C452.94 449.48 438.74 458.71 425 472 C424.17 472.79 423.35 473.57 422.5 474.38 C418.87 477.9 415.64 481.4 412.69 485.5 C404.41 496.44 392.27 502.66 378.91 504.75 C365.18 505.94 352.1 502.12 341 494 C336.38 490.06 332.63 485.56 328.88 480.81 C291.96 435.29 221.28 416.83 167 401 C166.33 400.8 165.66 400.61 164.96 400.41 C117.1 386.52 68 375.54 18.86 367.26 C18.05 367.12 17.25 366.99 16.42 366.85 C12.68 366.22 8.95 365.61 5.21 365.03 C-10.32 362.55 -24.64 358.27 -35.08 345.8 C-40.66 337.66 -46.11 328.1 -46.14 318.06 C-46.14 317.06 -46.15 316.06 -46.15 315.03 C-46.15 313.94 -46.15 312.84 -46.15 311.71 C-46.16 310.54 -46.16 309.38 -46.17 308.18 C-46.18 304.94 -46.18 301.7 -46.19 298.46 C-46.2 294.97 -46.21 291.48 -46.22 287.99 C-46.24 279.55 -46.26 271.11 -46.27 262.68 C-46.27 260.29 -46.28 257.91 -46.28 255.53 C-46.31 240.71 -46.33 225.9 -46.34 211.08 C-46.34 207.65 -46.35 204.22 -46.35 200.79 C-46.35 199.94 -46.35 199.09 -46.35 198.21 C-46.37 184.41 -46.4 170.61 -46.44 156.81 C-46.48 142.63 -46.51 128.45 -46.51 114.27 C-46.51 106.32 -46.53 98.36 -46.56 90.4 C-46.59 83.62 -46.6 76.85 -46.59 70.07 C-46.58 66.61 -46.58 63.16 -46.61 59.7 C-46.72 41.75 -46.41 27.15 -34 13 C-24.78 3.9 -13.06 -2.18 0 0 Z " transform="translate(254,622)"/>
  </g>
  <g id="gold" fill="#DCA54B" stroke="#DCA54B" stroke-width="3" stroke-linejoin="round">
    <path d="M0 0 C4.29 1.43 7.35 2.6 11.14 4.79 C12.07 5.32 12.99 5.85 13.94 6.39 C14.89 6.94 15.84 7.49 16.81 8.06 C17.78 8.62 18.74 9.17 19.74 9.74 C26.84 13.84 26.84 13.84 28 15 C29.17 22.74 29.13 30.57 29.08 38.37 C29.08 39.57 29.08 40.77 29.07 42 C29.06 45.29 29.05 48.59 29.03 51.88 C29.01 55.44 29 59 28.99 62.57 C28.97 68.73 28.95 74.89 28.92 81.06 C28.88 89.96 28.85 98.87 28.82 107.78 C28.76 122.24 28.71 136.7 28.65 151.16 C28.59 165.2 28.53 179.24 28.48 193.28 C28.48 194.14 28.48 195.01 28.47 195.9 C28.46 200.25 28.44 204.59 28.42 208.94 C28.29 244.96 28.15 280.98 28 317 C27.31 317.03 26.62 317.05 25.91 317.08 C22.76 317.21 19.61 317.34 16.46 317.46 C15.92 317.49 15.92 317.49 13.18 317.59 C5.54 317.91 -2.03 318.39 -9.62 319.25 C-10.2 319.31 -10.2 319.31 -13.11 319.64 C-59.42 325.03 -104.73 336.66 -148 354 C-148.52 354.21 -148.52 354.21 -151.12 355.24 C-190.43 371.02 -228.14 390.92 -263 415 C-263.31 415.21 -263.31 415.21 -264.85 416.27 C-276.23 424.11 -287.17 432.43 -298 441 C-298.96 441.75 -299.91 442.5 -300.9 443.28 C-309.07 449.74 -316.98 456.53 -324.87 463.34 C-325.19 463.61 -325.19 463.61 -326.8 465 C-328.04 466.07 -329.27 467.13 -330.51 468.2 C-334.78 471.89 -334.78 471.89 -337 473 C-331.39 460.36 -318.66 449.77 -309.32 439.69 C-306.01 436.12 -302.76 432.49 -299.6 428.78 C-295.37 424.07 -290.69 419.8 -286.06 415.5 C-284.73 414.26 -283.39 413.01 -282.05 411.77 C-281.71 411.46 -281.71 411.46 -280.01 409.87 C-278.1 408.09 -276.19 406.3 -274.29 404.51 C-267.41 398.04 -260.38 391.9 -253 386 C-251.8 385.01 -250.59 384.01 -249.39 383.02 C-181.45 326.79 -94.55 288.6 0 283 C0 189.61 0 96.22 0 0 Z " transform="translate(970,596)"/>
    <path d="M0 0 C0 93.39 0 186.78 0 283 C6.93 283.33 13.86 283.66 21 284 C26.42 284.64 31.75 285.33 37.12 286.19 C37.82 286.3 38.51 286.41 39.23 286.52 C115.09 298.45 185.13 329.73 245.13 377.51 C246.7 378.76 248.28 380 249.86 381.24 C267.48 395.13 283.63 410.54 299.5 426.38 C300.07 426.94 300.63 427.5 301.22 428.08 C307.36 434.21 313.41 440.36 319 447 C319.98 448.14 320.97 449.28 321.96 450.42 C322.91 451.53 323.86 452.64 324.81 453.75 C325.32 454.34 325.83 454.93 326.35 455.54 C331.29 461.31 336.15 467.15 341 473 C340.67 473.66 340.34 474.32 340 475 C339.19 474.24 338.38 473.48 337.54 472.69 C331.47 467.02 325.33 461.52 318.84 456.32 C316.83 454.68 314.86 453.02 312.91 451.3 C303.02 442.63 292.61 434.76 282 427 C281.33 426.51 280.67 426.02 279.98 425.52 C199.33 366.68 101.56 326.29 -16.12 317.45 C-17.17 317.41 -18.23 317.36 -19.31 317.32 C-21.87 317.21 -24.44 317.1 -27 317 C-27.21 278.63 -27.36 240.26 -27.46 201.89 C-27.47 197.36 -27.48 192.83 -27.49 188.3 C-27.5 187.85 -27.5 187.85 -27.5 185.57 C-27.54 170.97 -27.61 156.36 -27.69 141.76 C-27.78 126.78 -27.83 111.79 -27.85 96.81 C-27.86 87.57 -27.9 78.32 -27.97 69.07 C-28.02 62.73 -28.03 56.4 -28.02 50.06 C-28.02 46.4 -28.02 42.74 -28.07 39.08 C-28.12 35.12 -28.11 31.15 -28.08 27.19 C-28.11 26.03 -28.13 24.87 -28.16 23.68 C-28.03 16.07 -28.03 16.07 -25.08 13.01 C-22.78 11.44 -20.51 10.2 -18 9 C-16.48 8.15 -14.96 7.3 -13.44 6.45 C-11.96 5.67 -10.48 4.89 -9 4.12 C-8.24 3.72 -7.48 3.32 -6.69 2.91 C-1.15 0 -1.15 0 0 0 Z " transform="translate(281,596)"/>
  </g>
  <g id="cream" fill="#FBECD8" stroke="#FBECD8" stroke-width="3" stroke-linejoin="round">
    <path d="M0 0 C4.97 0.06 9.77 0.66 14.67 1.43 C15.57 1.56 16.48 1.7 17.4 1.84 C20.33 2.29 23.25 2.74 26.16 3.21 C26.67 3.28 26.67 3.28 29.21 3.69 C58.84 8.39 86.89 15.44 115.15 25.47 C116.85 26.07 118.54 26.67 120.23 27.26 C139.62 34.04 158.1 43.2 176.04 53.14 C177.59 53.99 179.15 54.83 180.7 55.67 C187.84 59.57 194.88 63.44 201.45 68.26 C203.47 69.73 205.49 71.14 207.56 72.53 C222.62 82.65 236.8 93.81 250.45 105.76 C252.78 107.79 255.14 109.79 257.5 111.8 C259.8 113.8 261.91 115.96 264.04 118.14 C264.72 118.81 265.4 119.48 266.1 120.17 C270.32 124.34 274.39 128.57 278.24 133.07 C280.21 135.34 282.25 137.55 284.29 139.77 C306.64 164.61 324.85 193.45 338.04 224.14 C338.7 223.15 339.36 222.16 340.04 221.14 C340.7 223.12 341.36 225.1 342.04 227.14 C342.55 226.01 343.06 224.89 343.59 223.72 C351.37 206.79 360.25 190.37 371.04 175.14 C371.52 174.46 372 173.78 372.5 173.08 C381.12 160.88 390.06 149.24 400.19 138.24 C402.04 136.14 402.04 136.14 404.04 133.14 C404.7 133.14 405.36 133.14 406.04 133.14 C406.29 132.57 406.53 132 406.79 131.41 C408.25 128.76 409.96 126.98 412.11 124.84 C412.52 124.44 412.52 124.44 414.58 122.38 C415.43 121.54 416.29 120.7 417.16 119.83 C417.99 119 418.82 118.17 419.68 117.32 C424.09 112.93 428.58 108.7 433.3 104.65 C435.59 102.67 437.78 100.59 439.98 98.52 C446.6 92.47 453.74 87.13 460.92 81.75 C463.11 80.09 465.27 78.38 467.42 76.67 C472.19 72.95 477.18 69.67 482.29 66.46 C482.77 66.15 482.77 66.15 485.18 64.63 C501.47 54.42 518.07 45.4 535.52 37.32 C537.68 36.31 539.84 35.27 541.98 34.22 C569.65 20.77 599.97 12.28 630.04 6.14 C630.72 6 631.4 5.85 632.1 5.7 C648.79 2.12 666.96 0.14 684.04 0.14 C684.04 101.12 684.04 202.1 684.04 306.14 C672.49 307.46 660.94 308.78 649.04 310.14 C606.43 317.47 566.18 329.7 527.04 348.14 C526.16 348.55 525.28 348.96 524.37 349.39 C489.73 365.62 458.4 387.8 429.04 412.14 C428.46 412.62 427.88 413.1 427.29 413.59 C419.51 420.03 412.04 426.75 404.66 433.64 C403.01 435.17 401.34 436.69 399.66 438.21 C399.12 438.7 398.57 439.19 398.01 439.7 C396.51 441.06 395 442.41 393.5 443.77 C391.04 446.14 391.04 446.14 389.33 448.46 C388.9 449.01 388.48 449.57 388.04 450.14 C387.38 450.14 386.72 450.14 386.04 450.14 C385.83 450.68 385.61 451.23 385.4 451.78 C383.55 455 381 457.35 378.35 459.89 C374.28 463.88 370.36 467.9 366.66 472.24 C364.91 474.29 363.1 476.27 361.29 478.27 C357.27 482.77 353.57 487.49 349.9 492.27 C347.94 494.8 346.1 497.08 343.76 499.26 C341.67 501.54 341.47 502.85 341.29 505.89 C341.23 506.69 341.18 507.49 341.12 508.31 C341.09 508.92 341.07 509.52 341.04 510.14 C339.04 508.14 339.04 508.14 338.91 504.64 C338.23 498.44 334.04 494.65 330.04 490.14 C329.01 488.95 327.99 487.75 326.97 486.56 C321.24 479.87 315.42 473.28 309.45 466.8 C308.18 465.4 306.91 463.99 305.68 462.54 C300.13 456.01 294.06 450.01 287.99 443.96 C286.11 442.08 284.23 440.2 282.35 438.32 C276.42 432.38 270.46 426.57 264.04 421.14 C262.92 420.15 261.8 419.15 260.68 418.14 C251.32 409.83 241.49 402.29 231.41 394.88 C229.25 393.3 227.1 391.7 224.96 390.1 C212.37 380.73 199.38 372.12 185.83 364.2 C184.15 363.21 182.47 362.2 180.79 361.19 C127.92 329.96 65.89 312.81 5.1 307.09 C4.13 307 3.16 306.91 2.16 306.81 C-0.21 306.59 -2.59 306.37 -4.96 306.14 C-4.98 267.3 -5 228.47 -5.01 189.63 C-5.01 185.05 -5.01 180.47 -5.02 175.89 C-5.02 174.98 -5.02 174.06 -5.02 173.12 C-5.02 158.34 -5.03 143.55 -5.04 128.77 C-5.05 113.61 -5.05 98.45 -5.05 83.29 C-5.06 73.93 -5.06 64.57 -5.07 55.21 C-5.07 48.8 -5.08 42.39 -5.07 35.97 C-5.07 32.27 -5.07 28.57 -5.08 24.86 C-5.09 20.86 -5.08 16.85 -5.08 12.84 C-5.08 11.66 -5.09 10.47 -5.09 9.25 C-5.09 8.19 -5.09 7.13 -5.08 6.03 C-5.08 5.57 -5.08 5.57 -5.08 3.22 C-4.86 -0.55 -3.99 0.14 0 0 Z M339.04 474.14 C339.04 478.1 339.04 482.06 339.04 486.14 C339.7 485.81 340.36 485.48 341.04 485.14 C340.71 481.51 340.38 477.88 340.04 474.14 C339.71 474.14 339.38 474.14 339.04 474.14 Z " transform="translate(285.96044921875,562.857177734375)"/>
  </g>
</svg>
